<svg aria-hidden="true" xmlns="http://www.w3.org/2000/svg" xmlns:xlink="http://www.w3.org/1999/xlink"><symbol viewBox="0 0 24 25" id="arrow-right" xmlns="http://www.w3.org/2000/svg">
<path d="M5 12.5H19" stroke-width="2" stroke-linecap="round" stroke-linejoin="round"/>
<path d="M12 5.5L19 12.5L12 19.5" stroke-width="2" stroke-linecap="round" stroke-linejoin="round"/>
</symbol><symbol viewBox="0 0 32 32" id="arrow-up" xmlns="http://www.w3.org/2000/svg">
<path d="M24 20L16 12L8 20" stroke-width="2" stroke-linecap="round" stroke-linejoin="round"/>
</symbol><symbol viewBox="0 0 24 24" id="calendar" xmlns="http://www.w3.org/2000/svg">
<path d="M19 4H5C3.89543 4 3 4.89543 3 6V20C3 21.1046 3.89543 22 5 22H19C20.1046 22 21 21.1046 21 20V6C21 4.89543 20.1046 4 19 4Z" stroke-width="2" stroke-linecap="round" stroke-linejoin="round"/>
<path d="M15 14L11.875 18L10 16.1176" stroke-width="2" stroke-linecap="round" stroke-linejoin="round"/>
<path d="M16 2V6" stroke-width="2" stroke-linecap="round" stroke-linejoin="round"/>
<path d="M8 2V6" stroke-width="2" stroke-linecap="round" stroke-linejoin="round"/>
<path d="M3 10H21" stroke-width="2" stroke-linecap="round" stroke-linejoin="round"/>
</symbol><symbol viewBox="0 0 25 24" id="check" xmlns="http://www.w3.org/2000/svg">
<path d="M20.5 6L9.5 17L4.5 12" stroke-width="2" stroke-linecap="round" stroke-linejoin="round"/>
</symbol><symbol viewBox="0 0 24 24" id="clock" xmlns="http://www.w3.org/2000/svg">
<path d="M12 22C17.5228 22 22 17.5228 22 12C22 6.47715 17.5228 2 12 2C6.47715 2 2 6.47715 2 12C2 17.5228 6.47715 22 12 22Z" stroke-width="2" stroke-linecap="round" stroke-linejoin="round"/>
<path d="M12 6V12L16 14" stroke-width="2" stroke-linecap="round" stroke-linejoin="round"/>
</symbol><symbol viewBox="0 0 24 24" id="guarantee" xmlns="http://www.w3.org/2000/svg">
<path d="M10.5752 2.94625C11.3586 2.15104 12.6414 2.15104 13.4248 2.94625L14.4681 4.00535C14.8477 4.39062 15.367 4.60576 15.9078 4.60171L17.3945 4.59058C18.5108 4.58222 19.4178 5.48924 19.4094 6.60549L19.3983 8.09215C19.3942 8.63295 19.6094 9.15234 19.9947 9.53188L21.0537 10.5752C21.849 11.3586 21.849 12.6414 21.0537 13.4248L19.9947 14.4681C19.6094 14.8477 19.3942 15.367 19.3983 15.9078L19.4094 17.3945C19.4178 18.5108 18.5108 19.4178 17.3945 19.4094L15.9078 19.3983C15.367 19.3942 14.8477 19.6094 14.4681 19.9947L13.4248 21.0537C12.6414 21.849 11.3586 21.849 10.5752 21.0537L9.53188 19.9947C9.15234 19.6094 8.63295 19.3942 8.09215 19.3983L6.60549 19.4094C5.48924 19.4178 4.58222 18.5108 4.59058 17.3945L4.60171 15.9078C4.60576 15.367 4.39062 14.8477 4.00535 14.4681L2.94625 13.4248C2.15104 12.6414 2.15104 11.3586 2.94625 10.5752L4.00535 9.53188C4.39062 9.15234 4.60576 8.63295 4.60171 8.09215L4.59058 6.60549C4.58222 5.48924 5.48924 4.58222 6.60549 4.59058L8.09215 4.60171C8.63295 4.60576 9.15234 4.39062 9.53188 4.00535L10.5752 2.94625Z" stroke-width="2"/>
<path d="M16 10L11.625 14L9 12.1176" stroke-width="2" stroke-linecap="round" stroke-linejoin="round"/>
</symbol><symbol viewBox="0 0 100 100" id="guarantee-calendar" xmlns="http://www.w3.org/2000/svg">
<path fill-rule="evenodd" clip-rule="evenodd" d="M68.8108 13.5915C68.8067 11.7338 67.408 10.3405 65.639 10.3447C63.8289 10.349 62.4714 11.7422 62.4755 13.5999L62.4796 16.5553L38.0432 16.5891L38.0391 13.6337C38.035 11.776 36.6774 10.3827 34.8673 10.387C33.0572 10.387 31.6996 11.7845 31.7038 13.6421L31.7079 16.8087C20.2302 17.8768 12.9157 25.7847 12.9322 38.0243L12.9774 69.2445C12.9939 82.5396 21.3121 90.8908 34.3983 90.8739L63.4297 90.8358C57.7577 87.2784 54.0006 81.0674 54.0006 74C54.0006 69.7612 55.3521 65.8304 57.6577 62.5954C57.1976 62.2672 56.8976 61.729 56.8976 61.1207V55.2586C56.8976 54.2588 57.7081 53.4482 58.7079 53.4482H64.57C65.5698 53.4482 66.3803 54.2588 66.3803 55.2586V55.6303C68.8703 54.5813 71.6159 54 74.5006 54C79.6312 54 84.3215 55.8387 87.9171 58.8774L87.8868 37.7583C87.8745 25.5989 80.2926 17.67 68.8149 16.758L68.8108 13.5915ZM38.0515 23.091L62.4878 23.0573L62.4919 26.4771C62.4919 28.2926 63.8536 29.728 65.6637 29.7238C67.4327 29.7238 68.8273 28.2841 68.8273 26.4686L68.8232 23.2177C76.8863 23.927 81.3787 28.6894 81.5556 37.7668V39.2445L19.2717 39.3289L19.2675 38.0159C19.2552 28.8583 23.6941 24.079 31.7161 23.2641L31.7202 26.5151C31.7202 28.3348 33.0819 29.766 34.892 29.7618C36.7021 29.7618 38.0556 28.3263 38.0556 26.5066L38.0515 23.091ZM22.4147 55.2586C22.4147 54.2588 23.2252 53.4482 24.225 53.4482H30.0871C31.0869 53.4482 31.8974 54.2588 31.8974 55.2586V61.1207C31.8974 62.1205 31.0869 62.931 30.0871 62.931H24.225C23.2252 62.931 22.4147 62.1205 22.4147 61.1207V55.2586ZM24.225 68.9658C23.2252 68.9658 22.4147 69.7763 22.4147 70.7762V76.6382C22.4147 77.6381 23.2252 78.4486 24.225 78.4486H30.0871C31.0869 78.4486 31.8974 77.6381 31.8974 76.6382V70.7762C31.8974 69.7763 31.0869 68.9658 30.0871 68.9658H24.225ZM39.6564 55.2586C39.6564 54.2588 40.4669 53.4482 41.4667 53.4482H47.3288C48.3286 53.4482 49.1391 54.2588 49.1391 55.2586V61.1207C49.1391 62.1205 48.3286 62.931 47.3288 62.931H41.4667C40.4669 62.931 39.6564 62.1205 39.6564 61.1207V55.2586ZM41.4667 68.9658C40.4669 68.9658 39.6564 69.7763 39.6564 70.7762V76.6382C39.6564 77.6381 40.4669 78.4486 41.4667 78.4486H47.3288C48.3286 78.4486 49.1391 77.6381 49.1391 76.6382V70.7762C49.1391 69.7763 48.3286 68.9658 47.3288 68.9658H41.4667Z"/>
<path fill-rule="evenodd" clip-rule="evenodd" d="M74.5697 57.7588C65.2854 57.7588 57.7594 65.0918 57.7594 74.1381C57.7594 83.1844 65.2854 90.5174 74.5697 90.5174C83.8541 90.5174 91.3801 83.1844 91.3801 74.1381C91.3801 65.0918 83.8541 57.7588 74.5697 57.7588ZM76.811 67.241C76.811 66.2412 76.0005 65.4307 75.0007 65.4307C74.0008 65.4307 73.1903 66.2412 73.1903 67.241V75.6634C73.1903 76.378 73.6106 77.0257 74.2633 77.3168L78.5736 79.2392C79.4867 79.6465 80.5571 79.2364 80.9644 78.3232C81.3716 77.4101 80.9615 76.3397 80.0484 75.9325L76.811 74.4886V67.241Z"/>
</symbol><symbol viewBox="0 0 100 100" id="guarantee-commitment" xmlns="http://www.w3.org/2000/svg">
<path d="M83.6207 44.2393C83.6207 63.4351 65.6721 78.9963 43.5345 78.9963C42.4632 78.9978 41.3932 78.9618 40.3263 78.8885C46.277 84.2392 54.5923 87.5622 63.7931 87.5622C67.039 87.5669 70.2715 87.1452 73.4078 86.3078C75.7951 87.5212 81.2862 89.8496 90.5242 91.3663C91.339 91.4975 91.9655 90.6448 91.6421 89.8824C90.1925 86.4554 88.8821 81.8888 88.4849 77.724C93.5093 72.682 96.5518 66.0822 96.5518 58.8675C96.5518 49.0111 90.878 40.3154 82.2357 35.1492C83.1388 38.0467 83.6207 41.0943 83.6207 44.2393Z"/>
<path fill-rule="evenodd" clip-rule="evenodd" d="M79 44.4729C79 61.3027 63.1049 74.9459 43.5 74.9459C39.9825 74.9509 36.4795 74.503 33.0807 73.6138C30.4937 74.9023 24.543 77.375 14.532 78.9857C13.6489 79.125 12.97 78.2195 13.3206 77.4098C14.8914 73.7705 16.3114 68.9209 16.7419 64.498C11.2971 59.1435 8 52.1347 8 44.4729C8 27.6432 23.8951 14 43.5 14C63.1049 14 79 27.6432 79 44.4729ZM29.3103 35.6582C28.0551 35.6582 27.0376 36.6757 27.0376 37.9309C27.0376 39.1861 28.0551 40.2037 29.3103 40.2037H45.6896C46.9448 40.2037 47.9624 39.1861 47.9624 37.9309C47.9624 36.6757 46.9448 35.6582 45.6896 35.6582H29.3103ZM29.3102 51.1758C28.055 51.1758 27.0375 52.1934 27.0375 53.4486C27.0375 54.7038 28.055 55.7213 29.3102 55.7213H58.6205C59.8757 55.7213 60.8933 54.7038 60.8933 53.4486C60.8933 52.1934 59.8757 51.1758 58.6205 51.1758H29.3102Z"/>
</symbol><symbol viewBox="0 0 100 100" id="guarantee-fast" xmlns="http://www.w3.org/2000/svg">
<path d="M45.6025 56.385C45.6216 56.3703 45.6402 56.355 45.6582 56.3392C45.6754 56.324 45.6921 56.3083 45.7083 56.2921C45.7773 56.2232 45.8371 56.147 45.8879 56.0636C46.0298 55.8303 46.1007 55.5403 46.1007 55.1935C46.1007 54.7226 45.9699 54.3629 45.7083 54.1144C45.5586 53.9646 45.366 53.86 45.1308 53.8005C44.9757 53.7612 44.8019 53.7416 44.6097 53.7416H40.6775L42.942 51.505C43.2704 51.1837 43.5618 50.8722 43.8162 50.5704C43.841 50.5411 43.8653 50.5118 43.8894 50.4826C44.071 50.2623 44.2326 50.0472 44.3742 49.8374C44.7404 49.3142 45.002 48.791 45.159 48.2679C45.329 47.7447 45.414 47.2084 45.414 46.6591C45.414 45.7827 45.2244 45.0503 44.8451 44.4617C44.4658 43.8601 43.9099 43.4023 43.1774 43.0884C42.8475 42.9444 42.4805 42.8335 42.0763 42.7555C41.5992 42.6635 41.0703 42.6175 40.4896 42.6175C40.3196 42.6175 40.1495 42.6224 39.9795 42.6321C39.4956 42.6598 39.0116 42.7268 38.5277 42.8333C38.4675 42.8468 38.4074 42.8612 38.3476 42.8763L38.2998 42.8885L38.249 42.902C37.9795 42.9743 37.7136 43.0632 37.4511 43.1685C37.1899 43.2733 36.9322 43.3945 36.6779 43.532L36.6639 43.5396C36.6185 43.564 36.5751 43.5893 36.5335 43.6156C36.2629 43.7864 36.0709 43.9965 35.9576 44.2459C35.8268 44.5206 35.781 44.8018 35.8202 45.0895C35.8725 45.3773 35.9903 45.6323 36.1734 45.8547C36.3696 46.077 36.605 46.2209 36.8797 46.2863C37.1674 46.3517 37.4879 46.3059 37.841 46.149C37.9015 46.1177 37.9615 46.088 38.0208 46.0596L38.0308 46.0549C38.2711 45.9408 38.5018 45.8506 38.7229 45.7843C38.8097 45.7583 38.8951 45.736 38.9789 45.7173C39.0375 45.7022 39.0955 45.6882 39.153 45.6756L39.1651 45.6729C39.4499 45.611 39.7213 45.58 39.9795 45.58C40.1623 45.58 40.3323 45.591 40.4896 45.613C40.7623 45.651 40.9968 45.7221 41.1931 45.8262C41.2645 45.864 41.3308 45.9062 41.3921 45.9528C41.7191 46.2013 41.8826 46.5741 41.8826 47.0711C41.8826 47.4635 41.7714 47.8558 41.549 48.2482C41.4954 48.3488 41.4318 48.4546 41.3584 48.5655C41.2094 48.7906 41.0197 49.0369 40.7893 49.3045L40.7797 49.3156C40.6835 49.427 40.5802 49.5421 40.47 49.6608L37.0366 53.2511C36.8831 53.4124 36.7453 53.5759 36.6233 53.7416L36.6073 53.7634L36.5925 53.784C36.5187 53.8867 36.4509 53.9903 36.3892 54.0948C36.2322 54.3825 36.1538 54.7095 36.1538 55.0757C36.1538 55.5989 36.278 55.9978 36.5265 56.2725C36.7063 56.4523 36.9603 56.5703 37.2885 56.6266C37.4377 56.6521 37.6023 56.6649 37.7822 56.6649H44.6097C45.029 56.6649 45.3599 56.5716 45.6025 56.385Z"/>
<path fill-rule="evenodd" clip-rule="evenodd" d="M52.9402 54.3498V55.0561C52.9402 55.6447 53.0906 56.0894 53.3914 56.3902C53.7053 56.6911 54.137 56.8415 54.6863 56.8415C55.2455 56.8415 55.669 56.6927 55.9566 56.3953L55.9615 56.3902C56.1312 56.2132 56.253 55.9945 56.327 55.7342C56.3842 55.5331 56.4128 55.307 56.4128 55.0561V54.3498H56.8836C57.351 54.3498 57.7085 54.2457 57.9561 54.0376C57.9719 54.0243 57.9871 54.0107 58.0019 53.9967C58.1043 53.9045 58.1866 53.7964 58.249 53.6722C58.2719 53.6264 58.2922 53.5784 58.3097 53.5282C58.3661 53.3669 58.3943 53.183 58.3943 52.9765C58.3943 52.6456 58.3175 52.3724 58.1637 52.1568C58.1237 52.1007 58.0785 52.0484 58.0281 52.0001C58.0195 51.9919 58.0108 51.9839 58.0019 51.9759C57.9871 51.9618 57.9719 51.9482 57.9561 51.935C57.902 51.8895 57.8425 51.8489 57.7778 51.8133C57.5468 51.6863 57.2487 51.6227 56.8836 51.6227H56.4128V44.4421C56.4128 43.8404 56.2689 43.3957 55.9812 43.108C55.6934 42.8072 55.301 42.6567 54.804 42.6567C54.3593 42.6567 53.9735 42.7483 53.6465 42.9314C53.3195 43.1145 53.0252 43.4023 52.7636 43.7947L47.9765 50.7791C47.8987 50.8874 47.827 50.9917 47.7615 51.092C47.6687 51.2341 47.5882 51.3683 47.5199 51.4946C47.4963 51.5383 47.4742 51.581 47.4535 51.6227C47.4129 51.7049 47.378 51.7833 47.3487 51.8582C47.2682 52.0548 47.2153 52.2575 47.1898 52.4664C47.1858 52.4992 47.1825 52.5323 47.1798 52.5654C47.1776 52.5929 47.1759 52.6204 47.1747 52.6481C47.173 52.6854 47.1721 52.7229 47.1721 52.7607C47.1721 53.2969 47.3291 53.6958 47.643 53.9574C47.97 54.219 48.4212 54.3498 48.9967 54.3498H52.9402ZM52.9402 51.6227V47.8078L50.3696 51.6227H52.9402Z"/>
<path d="M59.1072 49.2073C59.1237 49.1198 59.1483 49.0398 59.1811 48.9673C59.2229 48.8746 59.2781 48.794 59.3465 48.7256C59.4147 48.6574 59.4939 48.6023 59.584 48.5605C59.7231 48.496 59.8882 48.4629 60.0793 48.4614L60.0933 48.4613C60.1247 48.4613 60.1555 48.4622 60.1855 48.4638C60.1975 48.4644 60.2093 48.4652 60.221 48.466C60.4887 48.4864 60.6989 48.5729 60.8516 48.7256C60.8853 48.7579 60.916 48.793 60.9435 48.8307C61.0509 48.9778 61.1112 49.1661 61.1245 49.3954C61.1264 49.4279 61.1274 49.4613 61.1274 49.4954V51.702C61.1891 51.6185 61.2564 51.5411 61.3293 51.4698C61.4467 51.355 61.5786 51.256 61.7248 51.1729C61.856 51.1 61.9939 51.041 62.1384 50.9958C62.1763 50.984 62.2146 50.9731 62.2534 50.9632C62.4555 50.9115 62.6699 50.8856 62.8968 50.8856C63.3487 50.8856 63.7202 50.9737 64.0112 51.1499C64.0969 51.1995 64.1762 51.2577 64.2492 51.3244C64.2599 51.3342 64.2705 51.3442 64.2809 51.3544L64.2972 51.3705L64.2986 51.3719C64.4507 51.5254 64.5733 51.7195 64.6661 51.9542C64.8117 52.3142 64.8844 52.7699 64.8844 53.3214V55.7342C64.8844 56.0713 64.7964 56.3279 64.6202 56.504C64.509 56.6153 64.3672 56.6914 64.195 56.7324C64.0943 56.7563 63.9833 56.7683 63.8619 56.7683C63.5325 56.7683 63.2797 56.6802 63.1036 56.504C62.9274 56.3279 62.8393 56.0713 62.8393 55.7342V53.4019C62.8393 53.3744 62.8389 53.3476 62.8381 53.3214C62.8368 53.2755 62.8342 53.2315 62.8305 53.1894L62.8273 53.1574L62.8252 53.1381L62.8222 53.1144L62.8204 53.1012C62.8125 53.0442 62.802 52.9913 62.7889 52.9425C62.7687 52.8667 62.7425 52.8009 62.7101 52.7449L62.7022 52.7316C62.6877 52.708 62.6722 52.6864 62.6555 52.6665C62.6109 52.6101 62.5578 52.5646 62.496 52.5301C62.488 52.5256 62.4799 52.5214 62.4717 52.5173C62.4076 52.4855 62.3349 52.4647 62.2534 52.4549C62.2169 52.4504 62.1785 52.4482 62.1384 52.4482C62.0451 52.4482 61.9574 52.4575 61.8754 52.476C61.7557 52.503 61.6481 52.5497 61.5527 52.6161C61.499 52.6535 61.4491 52.6971 61.4031 52.747C61.338 52.8148 61.2844 52.8913 61.2423 52.9765C61.1813 53.1 61.1446 53.2418 61.1321 53.4019C61.129 53.4428 61.1274 53.4849 61.1274 53.5282V55.7342C61.1274 56.4236 60.7827 56.7683 60.0933 56.7683C59.9775 56.7683 59.871 56.7569 59.7741 56.734C59.7418 56.7264 59.7106 56.7176 59.6804 56.7074C59.5705 56.6705 59.4744 56.6169 59.3922 56.5464C59.383 56.5385 59.374 56.5304 59.3651 56.5221C59.3588 56.5162 59.3526 56.5102 59.3465 56.504C59.1703 56.3279 59.0822 56.0713 59.0822 55.7342V49.4954C59.0822 49.3918 59.0906 49.2957 59.1072 49.2073Z"/>
<path fill-rule="evenodd" clip-rule="evenodd" d="M8.3335 49.4993C8.3335 26.487 26.9875 7.83301 49.9998 7.83301C73.012 7.83301 91.666 26.487 91.666 49.4993C91.666 72.5115 73.012 91.1655 49.9998 91.1655C26.9875 91.1655 8.3335 72.5115 8.3335 49.4993ZM34.2841 58.5149C34.2468 58.4776 34.2104 58.4393 34.1749 58.4001C33.2162 57.3404 32.9825 56.062 32.9825 55.0757C32.9825 54.2423 33.1655 53.3824 33.6052 52.5762C33.6226 52.5443 33.6405 52.5128 33.659 52.4815C33.9665 51.9611 34.3346 51.49 34.7402 51.0641L34.7447 51.0594L36.3228 49.4092C36.2743 49.3999 36.2257 49.3898 36.1769 49.3787L36.1451 49.3713C35.2009 49.1465 34.4015 48.6396 33.7955 47.9528C33.7717 47.9258 33.7483 47.8984 33.7254 47.8706C33.1929 47.224 32.8477 46.4683 32.7002 45.6568C32.6918 45.6107 32.6844 45.5644 32.6781 45.518C32.5526 44.598 32.7082 43.7049 33.0828 42.907C33.5598 41.8755 34.3514 41.1844 35.1543 40.7507C36.0012 40.291 36.8958 39.9495 37.8331 39.7391L37.8463 39.7361C38.7187 39.5442 39.6011 39.4463 40.4896 39.4463C41.8448 39.4463 43.2013 39.6409 44.4361 40.1776C45.6768 40.7113 46.7591 41.5577 47.5193 42.7573C47.9034 43.3566 48.1683 43.9924 48.3379 44.6426L50.138 42.0161C50.6065 41.3185 51.2419 40.6434 52.097 40.1645C52.9786 39.6708 53.9182 39.4855 54.804 39.4855C55.976 39.4855 57.2518 39.8638 58.2491 40.8913C59.3429 42.0029 59.584 43.4074 59.584 44.4421V45.3179C59.7599 45.2986 59.9305 45.2901 60.0933 45.2901C60.9756 45.2901 62.1307 45.5354 63.07 46.4594C63.4993 46.8776 63.7891 47.343 63.9789 47.81C64.522 47.9098 65.0851 48.0979 65.6271 48.4212C66.6206 49.0053 67.2524 49.8777 67.6102 50.7756C67.955 51.6333 68.0557 52.5237 68.0557 53.3214V55.7342C68.0557 56.6074 67.819 57.79 66.8626 58.7464C65.919 59.69 64.7517 59.9395 63.8619 59.9395C63.3053 59.9395 62.6401 59.8419 61.989 59.5378C61.3095 59.8538 60.6252 59.9395 60.0933 59.9395C59.3372 59.9395 58.4106 59.7568 57.5842 59.1568C56.6439 59.8143 55.5792 60.0127 54.6863 60.0127C53.5445 60.0127 52.2463 59.6852 51.1972 58.6798C51.181 58.6642 51.1649 58.6485 51.149 58.6326C50.8016 58.2851 50.5356 57.9085 50.3344 57.521H48.9967C48.9032 57.521 48.8079 57.5191 48.7111 57.515C48.5192 57.8709 48.2697 58.2155 47.9507 58.5345C46.9122 59.5731 45.6109 59.8361 44.6097 59.8361H37.7822C36.8206 59.8361 35.3992 59.63 34.2841 58.5149ZM43.1682 26.5865C43.9969 26.3285 44.828 26.1164 45.659 25.9488C58.9328 23.3617 71.851 31.9309 74.6 45.2093C76.8821 56.2324 71.4436 67.0595 61.9729 72.0761C61.8839 72.111 61.7957 72.1505 61.7087 72.1946C60.7243 72.6934 59.6945 73.132 58.6223 73.5039L59.3831 71.4826C59.9681 69.9282 59.1823 68.1939 57.628 67.6088C56.0736 67.0238 54.3392 67.8096 53.7542 69.364L50.7652 77.3053C50.2792 78.5964 50.7341 80.0527 51.8686 80.8376L58.5727 85.4759C59.9385 86.4209 61.8117 86.0797 62.7567 84.7139C63.7016 83.3481 63.3605 81.4749 61.9947 80.5299L60.2705 79.337C66.0501 77.3825 70.9396 73.8141 74.5292 69.2556C74.6789 69.1246 74.8177 68.9767 74.9429 68.8123C77.0351 66.0658 78.654 62.983 79.7272 59.7015C79.8096 59.4496 79.857 59.1946 79.872 58.9418C80.9967 55.1502 81.401 51.0968 80.9581 46.9747C81.006 46.685 81.0121 46.3834 80.9706 46.0772C80.7424 44.3937 80.3714 42.7083 79.8508 41.0361C79.3301 39.3639 78.6787 37.7658 77.9108 36.2504C77.7721 35.9767 77.5974 35.7334 77.3953 35.5231C75.4503 31.9458 72.8344 28.8415 69.7474 26.3415C69.5824 26.1193 69.3839 25.9163 69.1527 25.7402C66.4063 23.648 63.3235 22.0292 60.0419 20.956C59.8229 20.8843 59.6016 20.8391 59.3814 20.8187C55.4117 19.6002 51.1479 19.1732 46.8138 19.685C46.683 19.6855 46.5508 19.6946 46.4176 19.7126C45.0801 19.8939 43.7414 20.1653 42.409 20.5303C34.2225 22.7215 27.6259 28.0795 23.6827 34.9825C23.5397 35.2329 23.4367 35.4951 23.3715 35.7619C22.5425 37.3235 21.8475 38.9562 21.2964 40.6412C20.7791 42.223 21.642 43.9246 23.2237 44.4419C24.8055 44.9592 26.5071 44.0963 27.0244 42.5146C27.888 39.874 29.1911 37.3924 30.8747 35.1824C31.0218 34.9893 31.142 34.7842 31.2359 34.5714C33.307 32.034 35.8865 29.8976 38.8614 28.3338C39.0149 28.285 39.1665 28.2233 39.3149 28.1481C40.5318 27.5315 41.8181 27.0069 43.1682 26.5865ZM22.6344 50.8749C24.2835 50.6514 25.8015 51.8071 26.025 53.4562C26.2082 54.8081 26.5065 56.1648 26.9269 57.515C27.3473 58.8651 27.8719 60.1513 28.4886 61.3683C29.2408 62.8528 28.6472 64.666 27.1627 65.4182C25.6782 66.1704 23.865 65.5768 23.1128 64.0923C22.3449 62.5769 21.6935 60.9788 21.1728 59.3066C20.6522 57.6344 20.2812 55.949 20.053 54.2655C19.8296 52.6164 20.9853 51.0984 22.6344 50.8749ZM35.5229 69.8085C34.199 68.8 32.3083 69.0557 31.2999 70.3795C30.2914 71.7033 30.5471 73.594 31.8709 74.6025C34.6173 76.6947 37.7001 78.3135 40.9817 79.3868C42.5634 79.9041 44.265 79.0412 44.7823 77.4594C45.2997 75.8777 44.4368 74.1761 42.855 73.6588C40.2145 72.7952 37.7329 71.492 35.5229 69.8085Z"/>
<path d="M37.7822 56.6649C37.2067 56.6649 36.7881 56.5341 36.5265 56.2725C36.278 55.9978 36.1538 55.5989 36.1538 55.0757C36.1538 54.7095 36.2322 54.3825 36.3892 54.0948C36.5592 53.807 36.775 53.5258 37.0366 53.2511L40.47 49.6608C40.9801 49.1115 41.3398 48.6406 41.549 48.2482C41.7714 47.8558 41.8826 47.4635 41.8826 47.0711C41.8826 46.5741 41.7191 46.2013 41.3921 45.9528C41.0651 45.7043 40.5942 45.58 39.9795 45.58C39.6656 45.58 39.3321 45.6258 38.9789 45.7173C38.6258 45.7958 38.2465 45.9397 37.841 46.149C37.4879 46.3059 37.1674 46.3517 36.8797 46.2863C36.605 46.2209 36.3696 46.077 36.1734 45.8547C35.9903 45.6323 35.8725 45.3773 35.8202 45.0895C35.781 44.8018 35.8268 44.5206 35.9576 44.2459C36.0884 43.9582 36.3238 43.7227 36.6639 43.5396C37.2655 43.2126 37.8868 42.9772 38.5277 42.8333C39.1817 42.6894 39.8356 42.6175 40.4896 42.6175C41.5621 42.6175 42.4581 42.7745 43.1774 43.0884C43.9099 43.4023 44.4658 43.8601 44.8451 44.4617C45.2244 45.0503 45.414 45.7827 45.414 46.6591C45.414 47.2084 45.329 47.7447 45.159 48.2679C45.002 48.791 44.7404 49.3142 44.3742 49.8374C44.0211 50.3606 43.5437 50.9164 42.942 51.505L39.7638 54.6443V53.7418L44.6097 53.7416C45.0936 53.7416 45.4598 53.8659 45.7083 54.1144C45.9699 54.3629 46.1007 54.7226 46.1007 55.1935C46.1007 55.6643 45.9699 56.0305 45.7083 56.2921C45.4598 56.5406 45.0936 56.6649 44.6097 56.6649H37.7822Z"/>
<path d="M54.6863 56.8415C54.137 56.8415 53.7053 56.6911 53.3914 56.3902C53.0906 56.0894 52.9402 55.6447 52.9402 55.0561V54.3498H48.9967C48.4212 54.3498 47.97 54.219 47.643 53.9574C47.3291 53.6958 47.1721 53.2969 47.1721 52.7607C47.1721 52.4468 47.231 52.1459 47.3487 51.8582C47.4664 51.5573 47.6757 51.1977 47.9765 50.7791L52.7636 43.7947C53.0252 43.4023 53.3195 43.1145 53.6465 42.9314C53.9735 42.7483 54.3593 42.6567 54.804 42.6567C55.301 42.6567 55.6934 42.8072 55.9812 43.108C56.2689 43.3957 56.4128 43.8404 56.4128 44.4421V51.6227H56.8836C57.3807 51.6227 57.7534 51.7405 58.0019 51.9759C58.2635 52.2113 58.3943 52.5449 58.3943 52.9765C58.3943 53.4212 58.2635 53.7612 58.0019 53.9967C57.7534 54.2321 57.3807 54.3498 56.8836 54.3498H56.4128V55.0561C56.4128 55.6316 56.2624 56.0763 55.9615 56.3902C55.6738 56.6911 55.2487 56.8415 54.6863 56.8415ZM52.9402 51.6227L52.9402 46.9927H53.4896L49.8011 52.4665V51.6229L52.9402 51.6227Z"/>
<path d="M60.0933 56.7683C59.7716 56.7683 59.5227 56.6802 59.3465 56.504C59.1703 56.3279 59.0822 56.0713 59.0822 55.7342V49.4954C59.0822 49.1584 59.1703 48.9018 59.3465 48.7256C59.5227 48.5494 59.7716 48.4613 60.0933 48.4613C60.4227 48.4613 60.6754 48.5494 60.8516 48.7256C61.0354 48.9018 61.1274 49.1584 61.1274 49.4954L61.1274 52.0003H60.9436C61.1274 51.6403 61.3878 51.3644 61.7248 51.1729C62.0695 50.9814 62.4601 50.8856 62.8968 50.8856C63.3487 50.8856 63.7202 50.9737 64.0112 51.1499C64.3023 51.3184 64.5206 51.5865 64.6661 51.9542C64.8117 52.3142 64.8844 52.7699 64.8844 53.3214V55.7342C64.8844 56.0713 64.7964 56.3279 64.6202 56.504C64.444 56.6802 64.1912 56.7683 63.8619 56.7683C63.5325 56.7683 63.2797 56.6802 63.1036 56.504C62.9274 56.3279 62.8393 56.0713 62.8393 55.7342V53.4019C62.8393 53.0572 62.778 52.8121 62.6555 52.6665C62.5406 52.521 62.3682 52.4482 62.1384 52.4482C61.8321 52.4482 61.5869 52.5478 61.4031 52.747C61.2193 52.9384 61.1274 53.1989 61.1274 53.5282V55.7342C61.1274 56.4236 60.7827 56.7683 60.0933 56.7683Z"/>
</symbol><symbol viewBox="0 0 100 100" id="guarantee-local" xmlns="http://www.w3.org/2000/svg">
<path d="M40.6677 82.9998L17.6677 85.9998L14.1677 69.4998L31.6677 66.4998L40.6677 82.9998Z"/>
<path d="M90.6678 81.4998L69.6678 83.9998L66.1678 67.4998L81.6678 64.9998L90.6678 81.4998Z"/>
<path d="M41.1935 72.8807L40.1676 73L48.6676 88L65.1676 87L61.7005 70.655C60.9376 71.3454 60.2019 71.9885 59.5052 72.5813C54.2011 77.0951 46.5993 77.1949 41.1935 72.8807Z"/>
<path fill-rule="evenodd" clip-rule="evenodd" d="M56.2648 68.7735C63.9497 62.2338 76.1678 49.6413 76.1678 35.6818C76.1678 28.738 73.4285 22.0785 68.5525 17.1685C63.6766 12.2584 57.0634 9.5 50.1678 9.5C43.2721 9.5 36.6589 12.2584 31.783 17.1685C26.907 22.0785 24.1678 28.738 24.1678 35.6818C24.1678 49.6413 36.3858 62.2338 44.0707 68.7735C47.6269 71.7997 52.7086 71.7997 56.2648 68.7735ZM62.1678 35.5C62.1678 42.1274 56.7952 47.5 50.1678 47.5C43.5403 47.5 38.1678 42.1274 38.1678 35.5C38.1678 28.8726 43.5403 23.5 50.1678 23.5C56.7952 23.5 62.1678 28.8726 62.1678 35.5Z"/>
</symbol><symbol viewBox="0 0 100 100" id="guarantee-quotes" xmlns="http://www.w3.org/2000/svg">
<path fill-rule="evenodd" clip-rule="evenodd" d="M57.4713 15.5533C57.4713 15.3151 57.3767 15.0867 57.2083 14.9183C57.0399 14.7499 56.8115 14.6553 56.5733 14.6553H31.4296C28.8099 14.6553 26.2974 15.696 24.4449 17.5484C22.5925 19.4009 21.5518 21.9134 21.5518 24.5331V74.8205C21.5518 77.4403 22.5925 79.9527 24.4449 81.8052C26.2974 83.6577 28.8099 84.6984 31.4296 84.6984H67.3492C69.9689 84.6984 72.4814 83.6577 74.3339 81.8052C76.1863 79.9527 77.227 77.4403 77.227 74.8205V70.8658L76.039 72.0505L66.3765 74.2758L66.0526 74.3085C65.6507 74.3491 65.2462 74.3559 64.8434 74.3289C63.8638 74.2892 62.902 74.0482 62.0181 73.6201C61.0602 73.1562 60.218 72.4841 59.5531 71.653C58.8882 70.8219 58.4174 69.8527 58.175 68.8163C57.9327 67.78 57.9249 66.7026 58.1522 65.6628L58.1591 65.6314L60.3197 56.3068L77.224 39.3553C77.2066 39.1441 77.115 38.945 76.964 38.794C76.7956 38.6256 76.5672 38.531 76.3291 38.531H60.1653C59.4508 38.531 58.7656 38.2472 58.2603 37.7419C57.7551 37.2367 57.4713 36.5515 57.4713 35.837V15.5533ZM28.7001 43.9661C28.7001 42.5378 29.858 41.3799 31.2863 41.3799H42.4932C43.9215 41.3799 45.0794 42.5378 45.0794 43.9661C45.0794 45.3944 43.9215 46.5523 42.4932 46.5523H31.2863C29.858 46.5523 28.7001 45.3944 28.7001 43.9661ZM28.7001 56.8968C28.7001 55.4684 29.858 54.3105 31.2863 54.3105H51.1139C52.5422 54.3105 53.7001 55.4684 53.7001 56.8968C53.7001 58.3251 52.5422 59.483 51.1139 59.483H31.2863C29.858 59.483 28.7001 58.3251 28.7001 56.8968ZM28.7 69.8284C28.7 68.4001 29.8578 67.2422 31.2862 67.2422H51.1137C52.5421 67.2422 53.7 68.4001 53.7 69.8284C53.7 71.2567 52.5421 72.4146 51.1137 72.4146H31.2862C29.8578 72.4146 28.7 71.2567 28.7 69.8284Z"/>
<path d="M77.227 63.5609V46.6774L65.0252 58.9133L63.2053 66.7677C63.1425 67.0548 63.1446 67.3523 63.2116 67.6385C63.2785 67.9247 63.4085 68.1923 63.5921 68.4218C63.7757 68.6513 64.0083 68.8369 64.2728 68.965C64.5373 69.0931 64.8271 69.1605 65.121 69.1623C65.2579 69.1761 65.3959 69.1761 65.5328 69.1623L73.4351 67.3424L77.227 63.5609Z"/>
<path d="M63.1597 17.6697C63.1597 17.0424 63.7896 16.6435 64.2563 17.0356C64.6512 17.3697 65.0069 17.7583 65.3104 18.2015L75.1439 32.5092C75.3658 32.8365 75.1243 33.2592 74.7392 33.2592H63.9756C63.7592 33.2592 63.5517 33.1694 63.3986 33.0096C63.2456 32.8497 63.1597 32.633 63.1597 32.4069V17.6697Z"/>
<path d="M65.0252 58.9133L63.2053 66.7677C63.1425 67.0548 63.1446 67.3523 63.2116 67.6385C63.2785 67.9247 63.4085 68.1923 63.5921 68.4218C63.7757 68.6513 64.0083 68.8369 64.2728 68.965C64.5373 69.0931 64.8271 69.1605 65.121 69.1623C65.2579 69.1761 65.3959 69.1761 65.5328 69.1623L73.4351 67.3424L87.2976 53.5176L78.8302 45.0693L65.0252 58.9133Z"/>
<path d="M93.3776 44.6602L87.7263 39.0088C87.3547 38.6392 86.8519 38.4316 86.3278 38.4316C85.8037 38.4316 85.3009 38.6392 84.9294 39.0088L81.7876 42.1506L90.2455 50.6084L93.3872 47.4667C93.5711 47.2819 93.7167 47.0627 93.8157 46.8215C93.9148 46.5804 93.9653 46.3221 93.9644 46.0614C93.9635 45.8008 93.9112 45.5428 93.8105 45.3024C93.7099 45.0619 93.5628 44.8437 93.3776 44.6602Z"/>
</symbol><symbol viewBox="0 0 100 100" id="guarantee-sat" xmlns="http://www.w3.org/2000/svg">
<path fill-rule="evenodd" clip-rule="evenodd" d="M44.4287 10.4118C47.5709 7.17524 52.7662 7.17525 55.9084 10.4118L57.7015 12.2586C59.2227 13.8255 61.3183 14.7024 63.5021 14.6858L66.0897 14.6661C70.5547 14.6322 74.1832 18.2599 74.1503 22.7249L74.1291 25.5902C74.1133 27.7328 74.9577 29.7922 76.4731 31.3071L78.5085 33.3417C81.6341 36.4662 81.6341 41.5331 78.5085 44.6575L76.4731 46.6922C74.9577 48.207 74.1133 50.2665 74.1291 52.4091L74.1503 55.2743C74.1832 59.7394 70.5547 63.3671 66.0897 63.3331L63.5021 63.3135C61.3183 63.2969 59.2227 64.1738 57.7015 65.7406L55.9084 67.5875C52.7662 70.824 47.5709 70.824 44.4287 67.5875L42.6356 65.7406C41.1144 64.1738 39.0188 63.2969 36.835 63.3135L34.2474 63.3331C29.7824 63.3671 26.1539 59.7394 26.1868 55.2743L26.208 52.4091C26.2238 50.2665 25.3794 48.207 23.864 46.6922L21.8286 44.6575C18.703 41.5331 18.703 36.4662 21.8286 33.3417L23.864 31.3071C25.3794 29.7922 26.2238 27.7328 26.208 25.5901L26.1868 22.7249C26.1539 18.2599 29.7824 14.6322 34.2474 14.6661L36.835 14.6858C39.0188 14.7024 41.1144 13.8255 42.6356 12.2586L44.4287 10.4118ZM51.8659 38.5712L50.0301 36.7346C49.6096 36.314 49.0396 36.077 48.4448 36.0754C47.8501 36.0738 47.2789 36.3078 46.8562 36.7262L34.0923 48.5056C33.6276 48.9437 33.3224 49.502 33.2943 50.127C33.2807 50.4371 33.3313 50.7465 33.4427 51.0362C33.5541 51.3258 33.724 51.5893 33.9419 51.8103L36.684 54.5827L36.6863 54.5853L36.689 54.5877C37.1127 55.01 37.6861 55.2481 38.2844 55.25H38.3673C38.9924 55.2268 39.5521 54.9336 39.9965 54.4646L51.8582 41.7592C52.0685 41.5506 52.2356 41.3026 52.3499 41.0294C52.4641 40.7561 52.5233 40.463 52.5241 40.1668C52.5248 39.8706 52.467 39.5772 52.3541 39.3034C52.2411 39.0296 52.0752 38.7807 51.8659 38.5712ZM66.6203 34.8594L66.5985 34.8376L64.1889 32.4526C64.0477 32.3119 63.8801 32.2006 63.6957 32.125C63.5113 32.0495 63.3138 32.0112 63.1145 32.0124C62.7916 32.0127 62.477 32.1146 62.2152 32.3035C62.2152 32.2821 62.2173 32.261 62.2193 32.2412L62.2215 32.2178L62.2218 32.2138C62.2535 31.7567 62.3011 31.0684 61.8559 30.4445C61.3251 29.729 60.7422 29.0535 60.1122 28.4237L60.109 28.4202L60.1065 28.4181C59.17 27.4956 57.1316 25.7581 54.009 24.4848C52.8248 23.9988 51.5569 23.7491 50.2769 23.75C48.0578 23.75 46.3703 24.7513 45.7241 25.3447C45.3582 25.6942 45.0245 26.0759 44.7271 26.4852C44.585 26.6813 44.51 26.9181 44.5132 27.1603C44.5165 27.4025 44.5978 27.6372 44.7451 27.8294C44.8925 28.0217 45.0979 28.1613 45.3309 28.2274C45.5639 28.2936 45.812 28.2828 46.0384 28.1966C46.2356 28.1229 46.4371 28.0611 46.6417 28.0117C47.0679 27.9215 47.5049 27.8943 47.939 27.9308C48.8664 28.0074 49.9633 28.468 50.4484 28.8512C51.2711 29.5128 51.6669 30.4044 51.7323 31.7403C51.745 32.0089 51.1895 33.0158 50.3261 34.1647C50.1616 34.3815 50.0813 34.6506 50.1 34.9221C50.1188 35.1936 50.2353 35.4491 50.428 35.6413L52.8475 38.0607C53.0508 38.2645 53.3245 38.3826 53.6122 38.3907C53.9 38.3988 54.1799 38.2963 54.3944 38.1043C55.0785 37.4933 56.1205 36.5722 56.4847 36.3465C57.0254 36.0139 57.4122 35.9499 57.5183 35.9387C57.7939 35.9117 58.071 35.9701 58.3122 36.106C58.3134 36.1181 58.312 36.1302 58.3083 36.1417C58.3059 36.149 58.3026 36.156 58.2984 36.1624C58.296 36.1661 58.2933 36.1696 58.2904 36.1728L58.1624 36.2945L58.1413 36.3142C57.9999 36.455 57.8878 36.6225 57.8114 36.8069C57.735 36.9913 57.6958 37.189 57.6961 37.3886C57.6965 37.5882 57.7363 37.7857 57.8133 37.9699C57.8903 38.154 58.003 38.3211 58.1448 38.4615L60.5537 40.8458C60.6949 40.9864 60.8625 41.0976 61.0469 41.173C61.2313 41.2484 61.4289 41.2866 61.6281 41.2852C62.0282 41.2859 62.4125 41.1293 62.6983 40.8493L66.6006 36.9948C66.614 36.9814 66.6273 36.9674 66.64 36.9533C66.9018 36.6663 67.0453 36.2909 67.0416 35.9025C67.038 35.514 66.8874 35.1414 66.6203 34.8594Z"/>
<path d="M56.0121 74.7414L65.0126 92.1376C65.7429 93.5491 67.7484 93.586 68.5302 92.2023L73.094 84.1243L68.461 76.543C67.885 75.6005 68.1821 74.3695 69.1246 73.7935C70.0672 73.2176 71.2981 73.5147 71.8741 74.4572L76.5589 82.1232L86.1257 83.0987C87.7068 83.2599 88.8352 81.6016 88.1049 80.19L78.5806 61.7813C76.2325 66.2979 71.4944 69.3741 66.0442 69.3327L63.4565 69.3131C62.9106 69.3089 62.3867 69.5281 62.0064 69.9198L60.2133 71.7667C58.9691 73.0483 57.541 74.0398 56.0121 74.7414Z"/>
<path d="M22.6345 63.2442L13.8672 80.1898C13.1368 81.6014 14.2653 83.2598 15.8464 83.0985L25.2676 82.1378L29.9615 74.457C30.5375 73.5145 31.7684 73.2174 32.7109 73.7933C33.6535 74.3693 33.9506 75.6003 33.3746 76.5428L28.8125 84.0081L33.4419 92.2021C34.2236 93.5858 36.2292 93.5489 36.9595 92.1374L45.6815 75.2795C43.6418 74.5915 41.7296 73.4205 40.1238 71.7665L38.3307 69.9197C37.9504 69.5279 37.4265 69.3087 36.8806 69.3129L34.293 69.3325C29.454 69.3693 25.1765 66.9485 22.6345 63.2442Z"/>
</symbol><symbol viewBox="0 0 25 24" id="phone" xmlns="http://www.w3.org/2000/svg">
<path d="M22.4999 16.9201V19.9201C22.5011 20.1986 22.444 20.4743 22.3325 20.7294C22.2209 20.9846 22.0572 21.2137 21.852 21.402C21.6468 21.5902 21.4045 21.7336 21.1407 21.8228C20.8769 21.912 20.5973 21.9452 20.3199 21.9201C17.2428 21.5857 14.2869 20.5342 11.6899 18.8501C9.27376 17.3148 7.22527 15.2663 5.68993 12.8501C3.99991 10.2413 2.94818 7.27109 2.61993 4.1801C2.59494 3.90356 2.62781 3.62486 2.71643 3.36172C2.80506 3.09859 2.9475 2.85679 3.1347 2.65172C3.32189 2.44665 3.54974 2.28281 3.80372 2.17062C4.05771 2.05843 4.33227 2.00036 4.60993 2.0001H7.60994C8.09524 1.99532 8.56573 2.16718 8.9337 2.48363C9.30167 2.80008 9.54201 3.23954 9.60994 3.7201C9.73656 4.68016 9.97139 5.62282 10.3099 6.5301C10.4445 6.88802 10.4736 7.27701 10.3938 7.65098C10.3141 8.02494 10.1288 8.36821 9.85994 8.6401L8.58994 9.9101C10.0135 12.4136 12.0864 14.4865 14.5899 15.9101L15.8599 14.6401C16.1318 14.3712 16.4751 14.1859 16.8491 14.1062C17.223 14.0264 17.612 14.0556 17.9699 14.1901C18.8772 14.5286 19.8199 14.7635 20.7799 14.8901C21.2657 14.9586 21.7093 15.2033 22.0265 15.5776C22.3436 15.9519 22.5121 16.4297 22.4999 16.9201Z"/>
</symbol><symbol viewBox="0 0 24 24" id="pin" xmlns="http://www.w3.org/2000/svg">
<path d="M21 10C21 15.1225 16.1804 19.7095 13.595 21.8016C12.6535 22.5634 11.3464 22.5634 10.405 21.8016C7.81961 19.7095 3 15.1225 3 10C3 7.61305 3.94821 5.32387 5.63604 3.63604C7.32387 1.94821 9.61305 1 12 1C14.3869 1 16.6761 1.94821 18.364 3.63604C20.0518 5.32387 21 7.61305 21 10Z" stroke-width="2" stroke-linecap="round" stroke-linejoin="round"/>
<path d="M12 13C13.6569 13 15 11.6569 15 10C15 8.34315 13.6569 7 12 7C10.3431 7 9 8.34315 9 10C9 11.6569 10.3431 13 12 13Z" stroke-width="2" stroke-linecap="round" stroke-linejoin="round"/>
</symbol><symbol viewBox="0 0 40 40" id="services-bathroom" xmlns="http://www.w3.org/2000/svg">
<path d="M37.5 21.25H2.5C2.16848 21.25 1.85054 21.3817 1.61612 21.6161C1.3817 21.8505 1.25 22.1685 1.25 22.5V28.75C1.25199 30.7385 2.0428 32.645 3.44889 34.0511C4.85498 35.4572 6.76149 36.248 8.75 36.25H10V38.75C10 39.0815 10.1317 39.3995 10.3661 39.6339C10.6005 39.8683 10.9185 40 11.25 40C11.5815 40 11.8995 39.8683 12.1339 39.6339C12.3683 39.3995 12.5 39.0815 12.5 38.75V36.25H27.5V38.75C27.5 39.0815 27.6317 39.3995 27.8661 39.6339C28.1005 39.8683 28.4185 40 28.75 40C29.0815 40 29.3995 39.8683 29.6339 39.6339C29.8683 39.3995 30 39.0815 30 38.75V36.25H31.25C33.2385 36.248 35.145 35.4572 36.5511 34.0511C37.9572 32.645 38.748 30.7385 38.75 28.75V22.5C38.75 22.1685 38.6183 21.8505 38.3839 21.6161C38.1495 21.3817 37.8315 21.25 37.5 21.25Z"/>
<path d="M20 7.625V6.25C20 5.25544 20.3951 4.30161 21.0983 3.59835C21.8016 2.89509 22.7554 2.5 23.75 2.5C24.7446 2.5 25.6984 2.89509 26.4017 3.59835C27.1049 4.30161 27.5 5.25544 27.5 6.25V18.75H30V6.25C30 4.5924 29.3415 3.00269 28.1694 1.83058C26.9973 0.65848 25.4076 0 23.75 0C22.0924 0 20.5027 0.65848 19.3306 1.83058C18.1585 3.00269 17.5 4.5924 17.5 6.25V7.625C16.0893 7.91512 14.8217 8.68273 13.9109 9.79844C13.0001 10.9141 12.5018 12.3097 12.5 13.75C12.5 14.0815 12.6317 14.3995 12.8661 14.6339C13.1005 14.8683 13.4185 15 13.75 15H23.75C24.0815 15 24.3995 14.8683 24.6339 14.6339C24.8683 14.3995 25 14.0815 25 13.75C24.9982 12.3097 24.4999 10.9141 23.5891 9.79844C22.6783 8.68273 21.4107 7.91512 20 7.625Z"/>
</symbol><symbol viewBox="0 0 40 40" id="services-door" xmlns="http://www.w3.org/2000/svg">
<path d="M36.2948 9.97837H19.4752C18.9047 9.41933 18.1817 9.04118 17.3971 8.89134C16.6125 8.74151 15.8011 8.82665 15.0647 9.1361C14.3283 9.44555 13.6996 9.96552 13.2575 10.6308C12.8154 11.2961 12.5796 12.0771 12.5796 12.8759C12.5796 13.6747 12.8154 14.4557 13.2575 15.1211C13.6996 15.7864 14.3283 16.3063 15.0647 16.6158C15.8011 16.9252 16.6125 17.0104 17.3971 16.8605C18.1817 16.7107 18.9047 16.3325 19.4752 15.7735H36.2948C36.4485 15.7735 36.5959 15.7125 36.7046 15.6038C36.8133 15.4951 36.8744 15.3477 36.8744 15.194V10.5579C36.8744 10.4042 36.8133 10.2568 36.7046 10.1481C36.5959 10.0394 36.4485 9.97837 36.2948 9.97837Z"/>
<path d="M21.6599 0.729492H10.2279C9.46996 0.729492 8.74302 1.0306 8.20704 1.56658C7.67107 2.10256 7.36996 2.8295 7.36996 3.58749L6.82373 36.4132C6.82373 37.1712 7.12484 37.8981 7.66082 38.4341C8.19679 38.9701 8.92374 39.2712 9.68172 39.2712H21.1137C21.8717 39.2712 22.5986 38.9701 23.1346 38.4341C23.6706 37.8981 23.9717 37.1712 23.9717 36.4132L24.5179 17.8775H20.6975C19.3794 18.9422 17.6944 19.4438 16.0086 19.273C14.3229 19.1023 12.7726 18.2732 11.6948 16.9658C10.9878 16.1089 10.5149 15.0834 10.3221 13.9893C10.1293 12.8953 10.2232 11.7699 10.5948 10.7229C10.9663 9.67598 11.6027 8.74312 12.442 8.01527C13.2812 7.28743 14.2948 6.78943 15.3838 6.56981C15.8037 6.48773 16.2305 6.4461 16.6584 6.44549C18.129 6.44238 19.5555 6.94716 20.6968 7.87449H24.5179V3.58749C24.5179 2.8295 24.2168 2.10256 23.6808 1.56658C23.1448 1.0306 22.4179 0.729492 21.6599 0.729492ZM15.3977 24.2667C16.0258 24.2637 16.6373 24.4688 17.1367 24.8497C17.6361 25.2307 17.9953 25.7662 18.1585 26.3728C18.3216 26.9794 18.2795 27.6229 18.0386 28.203C17.7977 28.7831 17.3715 29.2672 16.8267 29.5797V32.8407C16.8267 33.0302 16.7514 33.2119 16.6174 33.3459C16.4834 33.4799 16.3017 33.5552 16.1122 33.5552H14.6832C14.4937 33.5552 14.312 33.4799 14.178 33.3459C14.044 33.2119 13.9687 33.0302 13.9687 32.8407V29.5797C13.4239 29.2672 12.9978 28.7831 12.7569 28.203C12.5159 27.6229 12.4738 26.9794 12.6369 26.3728C12.8001 25.7662 13.1594 25.2307 13.6588 24.8497C14.1581 24.4688 14.7696 24.2637 15.3977 24.2667Z"/>
</symbol><symbol viewBox="0 0 40 40" id="services-plumbing" xmlns="http://www.w3.org/2000/svg">
<path d="M33.3534 7.36161L29.3741 3.5514C27.91 2.14953 25.5262 2.14953 24.0622 3.5514L18.7502 8.63767L22.7295 12.4479L26.7088 8.63767L33.3534 15C34.4081 13.9855 35.0002 12.6123 35.0002 11.1808C35.0002 9.74932 34.4081 8.3761 33.3534 7.36161Z"/>
<path d="M8.26962 22.9822C9.29545 24.0059 10.9472 24.0059 11.9557 22.9822L16.2502 18.6961L12.5642 15L8.26962 19.2861C7.24379 20.3099 7.24379 21.9584 8.26962 22.9822Z"/>
<path d="M25.5404 12.6679L30.7145 17.6822C30.8843 17.8462 31.0191 18.041 31.111 18.2553C31.2029 18.4696 31.2502 18.6993 31.2502 18.9313C31.2502 19.1633 31.2029 19.393 31.111 19.6074C31.0191 19.8217 30.8843 20.0164 30.7145 20.1805C30.5446 20.3445 30.3429 20.4746 30.121 20.5634C29.899 20.6522 29.6612 20.6979 29.4209 20.6979C29.1807 20.6979 28.9428 20.6522 28.7209 20.5634C28.499 20.4746 28.2973 20.3445 28.1274 20.1805L11.266 36.4635C9.83485 37.8455 7.5047 37.8455 6.07358 36.4635C4.64247 35.0815 4.64247 32.8313 6.07358 31.4492L19.0454 18.9225L13.2108 13.2881C12.9534 13.0425 12.749 12.7501 12.6096 12.4277C12.4701 12.1053 12.3983 11.7594 12.3983 11.41C12.3983 11.0606 12.4701 10.7146 12.6096 10.3922C12.749 10.0698 12.9534 9.77738 13.2108 9.53183C14.275 8.48646 16.018 8.48646 17.1005 9.54955L22.9351 15.1839L25.5404 12.6679Z"/>
</symbol><symbol viewBox="0 0 40 40" id="services-repair" xmlns="http://www.w3.org/2000/svg">
<path d="M28.6798 7.95473C28.1228 8.53409 27.8191 9.31066 27.8355 10.1136C27.8697 11.7856 29.2549 13.1134 30.9294 13.0793C31.7335 13.0629 32.4981 12.7282 33.0551 12.1488L37.0855 7.95657C37.8824 9.53889 38.1685 11.329 37.9043 13.0804C37.6401 14.8318 36.8387 16.4584 35.6103 17.7361C34.3819 19.0138 32.7871 19.8798 31.0454 20.2149C29.3036 20.55 27.5007 20.3376 25.8849 19.6071C23.7516 18.0192 22.8051 17.0993 21.5095 15.413C20.7126 13.8307 20.4265 12.0405 20.6907 10.2891C20.9549 8.53774 21.7564 6.91119 22.9847 5.63348C24.2131 4.35578 25.808 3.48976 27.5497 3.15468C29.2914 2.8196 31.0943 3.03194 32.7102 3.76246L28.6798 7.95473Z"/>
<path d="M13.6158 23.7865L18.0138 27.9566L11.4846 34.8827C10.9276 35.462 10.1629 35.7967 9.35881 35.8131C8.5547 35.8295 7.77699 35.5263 7.19678 34.9701C6.61658 34.4139 6.2814 33.6504 6.26498 32.8474C6.24856 32.0445 6.55225 31.2679 7.10923 30.6886L13.6158 23.7865Z"/>
<path d="M19.1656 16.3031L33.4581 29.8549C34.8708 31.1944 34.946 33.4181 33.6269 34.8497C32.2781 36.3136 29.99 36.3907 28.5454 35.021L14.2529 21.4692C13.0889 20.3655 12.8329 18.6618 13.5166 17.2953L6.88164 10.8991L5.65128 12.1289L2 7.21036L4.25829 4.7162L9.53806 8.24396L8.31768 9.46376L14.9038 15.8128C16.2384 15.0304 17.9841 15.1828 19.1656 16.3031Z"/>
</symbol><symbol viewBox="0 0 40 40" id="services-roof" xmlns="http://www.w3.org/2000/svg">
<g clip-path="url(#asclip0_8_228)">
<path d="M13.9111 14.9068L7.61136 14.9068L7.2617 15.58L13.5258 15.58L10.788 20.3623H4.77758L4.42792 21.0355H10.4027L7.88134 25.4399H2.11147L3.6632 22.4568V21.0355H3.68174V20.3623H3.6632V15.58H3.68174V14.9068H3.6632V14.5489H3.68174V13.2195H8.46824L10.2344 9.82422H16.8207L13.9111 14.9068Z"/>
<path d="M17.5964 9.82422L14.6868 14.9068H20.1568L23.0664 9.82422H17.5964Z"/>
<path d="M23.842 9.82422L20.9324 14.9068L26.8217 14.9068L28.1227 12.3683L36.9616 30.1767H40.3524L29.7655 9.82422H23.842Z"/>
<path d="M26.4767 15.58L20.5471 15.58L17.8094 20.3623H24.0258L26.4767 15.58Z"/>
<path d="M23.6808 21.0355H17.424L14.9027 25.4399H21.4236L23.6808 21.0355Z"/>
<path d="M21.0786 26.113H14.5173L12.191 30.1767H18.996L21.0786 26.113Z"/>
<path d="M11.4153 30.1767L13.7417 26.113H8.27163L5.94531 30.1767H11.4153Z"/>
<path d="M5.16967 30.1767L7.49599 26.113H1.76131L-0.352539 30.1767H5.16967Z"/>
<path d="M14.3014 15.58H19.7714L17.0337 20.3623H11.5637L14.3014 15.58Z"/>
<path d="M11.1783 21.0355L8.65699 25.4399H14.127L16.6484 21.0355H11.1783Z"/>
<path d="M24.8872 22.472H27.855V25.4398H24.8872V22.472Z"/>
<path d="M24.8872 26.1819H27.855V29.1497H24.8872V26.1819Z"/>
<path d="M31.5645 22.472H28.5967V25.4398H31.5645V22.472Z"/>
<path d="M28.5967 26.1819H31.5645V29.1497H28.5967V26.1819Z"/>
</g>
<defs>
<clipPath id="asclip0_8_228">
<rect width="40" height="40"/>
</clipPath>
</defs>
</symbol><symbol viewBox="0 0 40 40" id="services-wall" xmlns="http://www.w3.org/2000/svg">
<path d="M5 9C5 8.44771 5.44772 8 6 8H18.0816C18.6339 8 19.0816 8.44772 19.0816 9V13.7568C19.0816 14.309 18.6339 14.7568 18.0816 14.7568H6C5.44771 14.7568 5 14.309 5 13.7568V9Z"/>
<path d="M5 18.1216C5 17.5693 5.44772 17.1216 6 17.1216H11.9592C12.5115 17.1216 12.9592 17.5693 12.9592 18.1216V22.8784C12.9592 23.4307 12.5115 23.8784 11.9592 23.8784H6C5.44772 23.8784 5 23.4307 5 22.8784V18.1216Z"/>
<path d="M14.7959 18.1216C14.7959 17.5693 15.2436 17.1216 15.7959 17.1216H27.8776C28.4298 17.1216 28.8776 17.5693 28.8776 18.1216V22.8784C28.8776 23.4307 28.4298 23.8784 27.8776 23.8784H15.7959C15.2436 23.8784 14.7959 23.4307 14.7959 22.8784V18.1216Z"/>
<path d="M5 27.2432C5 26.691 5.44772 26.2432 6 26.2432H18.0816C18.6339 26.2432 19.0816 26.691 19.0816 27.2432V32C19.0816 32.5523 18.6339 33 18.0816 33H6C5.44771 33 5 32.5523 5 32V27.2432Z"/>
<path d="M20.9184 27.2432C20.9184 26.691 21.3661 26.2432 21.9184 26.2432H34C34.5523 26.2432 35 26.691 35 27.2432V32C35 32.5523 34.5523 33 34 33H21.9184C21.3661 33 20.9184 32.5523 20.9184 32V27.2432Z"/>
</symbol><symbol viewBox="0 0 40 40" id="services-wood-tree" xmlns="http://www.w3.org/2000/svg">
<path d="M34.721 2.95898H31.1954C30.9727 2.95898 30.7696 3.08466 30.6698 3.28377L27.6698 9.28406L24.6698 3.28377C24.5699 3.08466 24.3668 2.95898 24.1441 2.95898H11.2168C10.892 2.95898 10.6292 3.22208 10.6292 3.54659V18.9291L5.06875 15.3905C4.83692 15.2433 4.53279 15.2755 4.33769 15.4708L1.39966 18.4089C1.17989 18.6289 1.16898 18.9821 1.37613 19.2148L10.6292 29.6247V36.4525C10.6292 36.777 10.892 37.0401 11.2168 37.0401H17.6805V27.6384C17.6805 27.3139 17.9433 27.0508 18.2681 27.0508C18.5929 27.0508 18.8557 27.3139 18.8557 27.6384V37.0401H34.721C35.0458 37.0401 35.3086 36.777 35.3086 36.4525V3.54659C35.3086 3.22208 35.0458 2.95898 34.721 2.95898ZM18.8557 24.1128C18.8557 24.4373 18.5929 24.7004 18.2681 24.7004C17.9433 24.7004 17.6805 24.4373 17.6805 24.1128V22.9376C17.6805 22.6131 17.9433 22.35 18.2681 22.35C18.5929 22.35 18.8557 22.6131 18.8557 22.9376V24.1128Z"/>
</symbol><symbol viewBox="0 0 24 24" id="social-facebook" xmlns="http://www.w3.org/2000/svg">
<path d="M18 2H15C13.6739 2 12.4021 2.52678 11.4645 3.46447C10.5268 4.40215 10 5.67392 10 7V10H7V14H10V22H14V14H17L18 10H14V7C14 6.73478 14.1054 6.48043 14.2929 6.29289C14.4804 6.10536 14.7348 6 15 6H18V2Z"/>
</symbol><symbol viewBox="0 0 24 24" id="social-instagram" xmlns="http://www.w3.org/2000/svg">
<path d="M17 2H7C4.23858 2 2 4.23858 2 7V17C2 19.7614 4.23858 22 7 22H17C19.7614 22 22 19.7614 22 17V7C22 4.23858 19.7614 2 17 2Z"/>
<path d="M15.9997 11.3703C16.1231 12.2025 15.981 13.0525 15.5935 13.7993C15.206 14.5461 14.5929 15.1517 13.8413 15.53C13.0898 15.9082 12.2382 16.0399 11.4075 15.9062C10.5768 15.7726 9.80947 15.3804 9.21455 14.7855C8.61962 14.1905 8.22744 13.4232 8.09377 12.5925C7.96011 11.7619 8.09177 10.9102 8.47003 10.1587C8.84829 9.40716 9.45389 8.79404 10.2007 8.40654C10.9475 8.01904 11.7975 7.87689 12.6297 8.0003C13.4786 8.12619 14.2646 8.52176 14.8714 9.12861C15.4782 9.73545 15.8738 10.5214 15.9997 11.3703Z" stroke-width="2" stroke-linecap="round" stroke-linejoin="round"/>
<path d="M17.5 6.5H17.51" stroke-width="2" stroke-linecap="round" stroke-linejoin="round"/>
</symbol><symbol viewBox="0 0 24 24" id="social-mail" xmlns="http://www.w3.org/2000/svg">
<path d="M4 4H20C21.1 4 22 4.9 22 6V18C22 19.1 21.1 20 20 20H4C2.9 20 2 19.1 2 18V6C2 4.9 2.9 4 4 4Z"/>
<path d="M22 6L12 13L2 6" stroke-width="2" stroke-linecap="round" stroke-linejoin="round"/>
</symbol><symbol viewBox="0 0 24 24" id="social-twitter" xmlns="http://www.w3.org/2000/svg">
<path d="M23 3.00029C22.0424 3.67577 20.9821 4.1924 19.86 4.53029C19.2577 3.8378 18.4573 3.34698 17.567 3.12422C16.6767 2.90145 15.7395 2.95749 14.8821 3.28474C14.0247 3.612 13.2884 4.19469 12.773 4.95401C12.2575 5.71332 11.9877 6.61263 12 7.53029V8.53029C10.2426 8.57586 8.50127 8.1861 6.93101 7.39574C5.36074 6.60537 4.01032 5.43893 3 4.00029C3 4.00029 -1 13.0003 8 17.0003C5.94053 18.3983 3.48716 19.0992 1 19.0003C10 24.0003 21 19.0003 21 7.50029C20.9991 7.22174 20.9723 6.94388 20.92 6.67029C21.9406 5.66378 22.6608 4.393 23 3.00029Z"/>
</symbol><symbol viewBox="0 0 24 24" id="social-youtube" xmlns="http://www.w3.org/2000/svg">
<path fill-rule="evenodd" clip-rule="evenodd" d="M21.8392 5.15941C22.1799 5.51057 22.4218 5.94541 22.5406 6.42C22.8578 8.1787 23.0118 9.96295 23.0006 11.75C23.0069 13.5103 22.8529 15.2676 22.5406 17C22.4218 17.4746 22.1799 17.9094 21.8392 18.2606C21.4986 18.6118 21.0713 18.8668 20.6006 19C18.8806 19.46 12.0006 19.46 12.0006 19.46C12.0006 19.46 5.12057 19.46 3.40057 19C2.93939 18.8738 2.51855 18.6308 2.17872 18.2945C1.83888 17.9581 1.59153 17.5398 1.46057 17.08C1.14334 15.3213 0.989351 13.537 1.00057 11.75C0.991808 9.97631 1.14579 8.20556 1.46057 6.46C1.57936 5.98541 1.82129 5.55057 2.16192 5.19941C2.50255 4.84824 2.92982 4.59318 3.40057 4.46C5.12057 4 12.0006 4 12.0006 4C12.0006 4 18.8806 4 20.6006 4.42C21.0713 4.55318 21.4986 4.80824 21.8392 5.15941ZM15.5 11.75L9.75 15.02V8.47998L15.5 11.75Z"/>
</symbol><symbol viewBox="0 0 36 36" id="star" xmlns="http://www.w3.org/2000/svg">
<path d="M16.0435 6.02106C16.6593 4.12579 19.3406 4.12579 19.9564 6.02106L21.5794 11.0159C21.8548 11.8635 22.6446 12.4374 23.5358 12.4374H28.7878C30.7806 12.4374 31.6091 14.9875 29.9969 16.1588L25.748 19.2458C25.027 19.7696 24.7253 20.6982 25.0007 21.5458L26.6237 26.5406C27.2395 28.4359 25.0703 30.0119 23.458 28.8406L19.2091 25.7536C18.4881 25.2298 17.5118 25.2298 16.7908 25.7536L12.5419 28.8406C10.9297 30.0119 8.7605 28.4359 9.37631 26.5406L10.9992 21.5458C11.2746 20.6982 10.973 19.7696 10.2519 19.2458L6.00305 16.1588C4.39084 14.9875 5.21941 12.4374 7.21221 12.4374H12.4641C13.3553 12.4374 14.1452 11.8635 14.4206 11.0159L16.0435 6.02106Z"/>
</symbol></svg>